<svg width="24" height="24" viewBox="0 0 24 24" fill="none" xmlns="http://www.w3.org/2000/svg">
<rect width="24" height="24" rx="12" fill="#006CD4"/>
<path d="M10.3144 13.8652H12.232V13.4255C12.232 12.8014 12.5876 12.5745 13.4536 11.9929C14.5361 11.227 15 10.7589 15 9.51064C15 7.70922 13.5619 7 11.6598 7C10.5464 7 9.7268 7.15603 9 7.42553V8.88652C9.60309 8.71631 10.1134 8.60284 10.9948 8.60284C12.1237 8.60284 12.7113 8.88652 12.7113 9.70922C12.7113 10.3901 12.433 10.7021 11.799 11.1418C10.7938 11.8652 10.3144 12.2624 10.3144 13.2411V13.8652ZM10.2062 17H12.3866V15.1277H10.2062V17Z" fill="white"/>
</svg>
