<svg width="20" height="22" viewBox="0 0 20 22" fill="none" xmlns="http://www.w3.org/2000/svg">
<path fill-rule="evenodd" clip-rule="evenodd" d="M18.5 9.21292C18.5 12.9348 15.4829 15.9519 11.761 15.9519C8.03917 15.9519 5.02202 12.9348 5.02202 9.21292C5.02202 5.49108 8.03917 2.47393 11.761 2.47393C15.4829 2.47393 18.5 5.49108 18.5 9.21292ZM20 9.21292C20 13.7632 16.3113 17.4519 11.761 17.4519C9.7464 17.4519 7.90067 16.7288 6.46919 15.528L1.17207 20.8252C0.903942 21.0933 0.469222 21.0933 0.201095 20.8252C-0.0670318 20.557 -0.0670318 20.1223 0.201095 19.8542L5.49387 14.5614C4.26439 13.1221 3.52202 11.2542 3.52202 9.21292C3.52202 4.66265 7.21074 0.973933 11.761 0.973933C16.3113 0.973933 20 4.66265 20 9.21292Z" fill="black"/>
</svg>
